<?xml version="1.0" standalone="no"?>
<!DOCTYPE svg PUBLIC "-//W3C//DTD SVG 1.1//EN" "http://www.w3.org/Graphics/SVG/1.1/DTD/svg11.dtd" >
<svg>
<metadata>
Created by FontForge 20090914 at Fri Jun  1 20:50:20 2012
 By www-data
Copyright (c) Sampan Sittiwantana, 2005. All rights reserved.
</metadata>
<defs>
<font id="HappyHell" horiz-adv-x="466" >
  <font-face 
    font-family="Happy Hell"
    font-weight="900"
    font-stretch="normal"
    units-per-em="1000"
    panose-1="0 0 9 0 0 0 0 0 0 0"
    ascent="800"
    descent="-200"
    x-height="436"
    cap-height="641"
    bbox="-190 -275.001 801 797"
    underline-thickness="50"
    underline-position="-75"
    unicode-range="U+0020-U+007A"
  />
<missing-glyph horiz-adv-x="997" 
d="M401 797l349 -2l-114 -322h165l-440 -671l163 448h-189l88 232h-149z" />
    <glyph glyph-name=".notdef" horiz-adv-x="997" 
d="M401 797l349 -2l-114 -322h165l-440 -671l163 448h-189l88 232h-149z" />
    <glyph glyph-name="space" unicode=" " horiz-adv-x="314" 
 />
    <glyph glyph-name="exclam" unicode="!" horiz-adv-x="269" 
d="M216 567c-1.33301 -121.333 -12.332 -237 -32.999 -347l-92 7c-10.667 72.667 -19.334 185 -26.001 337zM138.001 172c15.333 0 30.166 -3.83301 44.499 -11.5s25.5 -18.667 33.5 -33s12 -29.166 12 -44.499s-4 -30.166 -12 -44.499s-19 -25.333 -33 -33
s-29 -11.5 -45 -11.5c-15.333 0 -30.166 3.83301 -44.499 11.5s-25.333 18.667 -33 33s-11.5 29.166 -11.5 44.499s4 30.166 12 44.499s19.167 25.333 33.5 33s28.833 11.5 43.5 11.5z" />
    <glyph glyph-name="quotedbl" unicode="&#x22;" horiz-adv-x="359" 
d="M149 635c8.66699 -78 12.667 -151.667 12 -221l-137 -4c5.33301 74 13.333 147.667 24 221zM322 635c8.66699 -78 12.334 -151.667 11.001 -221l-137 -4c5.33301 74 13.666 147.667 24.999 221z" />
    <glyph glyph-name="numbersign" unicode="#" horiz-adv-x="670" 
d="M23 266c39.333 -8 75.667 -14.6689 109 -20.002v48c0 19.333 0.666992 42 2 68l-108 18l4 138c40.667 -8 77.667 -14.667 111 -20c2 36 4.66699 75.667 8 119l134 -13l-7 -127c12.667 -1.33301 24.334 -2.66602 35.001 -3.99902c27.333 -2.66699 53.666 -5 78.999 -7
c2 40.667 4.33301 85.334 7 134.001l138 -3l-7 -133c36.667 2 77 6 121 12l-1 -125c-45.333 -11.333 -88 -15 -128 -11v-6c-2.66699 -42 -4 -80.333 -4 -115c38 0.666992 79.667 7 125 19l4 -139c-45.333 -4.66699 -86.333 -8.33398 -123 -11.001c4 -34 9 -72.333 15 -115
l-135 6c-3.33301 36.667 -6.33301 71.334 -9 104.001c-20.667 -0.666992 -39.667 -0.666992 -57 0c-20 1.33301 -42.667 3.33301 -68 6c2 -31.333 4.33301 -66 7 -104l-135 6c-2 42 -3.66699 81 -5 117l-121 20l9 138v0zM348.001 335.998
c-22.667 0.666992 -49.335 2.99902 -80.002 6.99902v-7c-2.66699 -38.667 -4 -75.667 -4 -111c12.667 -1.33301 24.334 -2.66602 35.001 -3.99902c30 -3.33301 59 -4 87 -2c-1.33301 26 -1.66602 50.333 -0.999023 73v43c-12.667 0 -25 0.333008 -37 1z" />
    <glyph glyph-name="dollar" unicode="$" horiz-adv-x="556" 
d="M365 673c-3.33301 -37.333 -6.99707 -74.999 -10.9971 -112.999c48 -12 95 -31.333 141 -58l-37 -153c-50.667 31.333 -90.334 54.333 -119.001 69c-1.33301 -10 -2.33301 -19.667 -3 -29l-6 -61l63 -22c30 -12 58.5 -31.167 85.5 -57.5s39 -60.833 36 -103.5
s-13.5 -78.5 -31.5 -107.5s-44.667 -50.167 -80 -63.5c-28.667 -11.333 -60.334 -17.333 -95.001 -18c-1.33301 -33.333 -3 -69 -5 -107l-90 4c2 39.333 4 76.333 6 111c-16 3.33301 -30 8 -42 14c-26 12.667 -49.333 26.5 -70 41.5s-42.667 35.5 -66 61.5l103 112
c33.333 -39.333 61.333 -64.333 84 -75c1.33301 36 3 69 5 99c-19.333 6 -38.333 13 -57 21c-36 14 -66 37.333 -90 70s-34.5 69.167 -31.5 109.5s13.5 73.333 31.5 99s45.333 43.167 82 52.5c25.333 6.66699 55.666 8.66699 90.999 6c4 33.333 8 69.666 12 108.999l94 -11
v0zM244.003 389.001c0.666992 12.667 1.33203 26.001 1.99902 40.001c-16 -6 -25 -14.333 -27 -25c-3.33301 -13.333 4 -26.333 22 -39c0 -0.666992 0.333008 -1 1 -1c0.666992 9.33301 1.33398 17.666 2.00098 24.999zM349.001 168.002c0 8 -10 15.668 -30 23.001
c-1.33301 -20 -2.33301 -39.667 -3 -59c-0.666992 -4.66699 -1 -10 -1 -16c18 5.33301 28.333 12.666 31 21.999s3.66699 19.333 3 30z" />
    <glyph glyph-name="percent" unicode="%" horiz-adv-x="577" 
d="M23 50l384 587l128 -66l-384 -587zM136 622c20 0 39.499 -5.16699 58.499 -15.5s33.833 -25.166 44.5 -44.499s16 -39.666 16 -60.999c0 -20.667 -5.16699 -40.334 -15.5 -59.001s-25 -33.334 -44 -44.001s-38.833 -16 -59.5 -16c-20 0 -39.5 5.33301 -58.5 16
s-33.667 25.334 -44 44.001s-15.5 38.334 -15.5 59.001c0 21.333 5.33301 41.666 16 60.999s25.334 34.166 44.001 44.499s38 15.5 58 15.5zM442.999 249c20 0 39.333 -5.16699 58 -15.5s33.334 -25 44.001 -44s16 -39.167 16 -60.5c0 -20.667 -5.16699 -40.5 -15.5 -59.5
s-24.833 -33.833 -43.5 -44.5s-38.334 -16 -59.001 -16c-20 0 -39.5 5.33301 -58.5 16s-33.667 25.5 -44 44.5s-15.5 38.833 -15.5 59.5c0 21.333 5.16699 41.5 15.5 60.5s25 33.667 44 44s38.5 15.5 58.5 15.5z" />
    <glyph glyph-name="ampersand" unicode="&#x26;" horiz-adv-x="688" 
d="M418 359c-21.333 -20.667 -42.6689 -34.668 -64.002 -42.001l117 -123c8.66699 9.33301 19.667 31.333 33 66c6 16 11.333 32 16 48s9 33.667 13 53l100 -13c0 -26.667 -9 -63.334 -27 -110.001c-15.333 -47.333 -34.666 -83 -57.999 -107c24 -24 51.333 -33.667 82 -29
l4 -123c-26 0 -48.5 1.33301 -67.5 4s-35.833 7.16699 -50.5 13.5s-38.667 19.5 -72 39.5c-15.333 -14.667 -40.666 -27.334 -75.999 -38.001c-34.667 -11.333 -67.334 -17 -98.001 -17c-67.333 0 -121.333 17.667 -162 53c-40.667 36 -61 82.333 -61 139
c0 40 18.333 78.333 55 115c30.667 28 59.667 46.667 87 56c-12 12.667 -22.667 28.334 -32 47.001c-12 22.667 -18 45.667 -18 69c0 39.333 16.667 71 50 95c31.333 23.333 70.333 35 117 35c42.667 0 78.334 -13.333 107.001 -40c30 -27.333 45 -61.666 45 -102.999
c0 -31.333 -13.333 -60.666 -40 -87.999zM311.997 423.999c6.66699 5.33301 11 10.999 13 16.999c1.33301 4.66699 2 9.33398 2 14.001c0 8 -2.33301 14.667 -7 20c-4 5.33301 -11 8 -21 8s-18 -3.33301 -24 -10c-4.66699 -4.66699 -7 -11 -7 -19
c0 -4 0.666992 -7.66699 2 -11c2.66699 -7.33301 6.5 -14 11.5 -20s8.83301 -9.66699 11.5 -11l10.5 6c3.66699 2 6.5 4 8.5 6zM241.997 226.998c-11.333 -4.66699 -21 -13.167 -29 -25.5s-12 -25.833 -12 -40.5c0 -10 2 -19.667 6 -29
c5.33301 -10.667 12.833 -18.5 22.5 -23.5s20.167 -7.5 31.5 -7.5c12 0 24 2.5 36 7.5s21.333 10.5 28 16.5z" />
    <glyph glyph-name="quotesingle" unicode="'" horiz-adv-x="212" 
d="M24 353l19 263l153 5l-21 -264z" />
    <glyph glyph-name="parenleft" unicode="(" horiz-adv-x="315" 
d="M233 666l85.998 -113.001c-66.667 -70 -108.667 -127.333 -126 -172s-27.166 -87.167 -29.499 -127.5s1.66699 -79.5 12 -117.5s26.333 -71.167 48 -99.5s53.167 -57.833 94.5 -88.5l-65 -119c-50 28 -85.5 53.333 -106.5 76s-41.833 49.667 -62.5 81
s-37.167 69.333 -49.5 114s-18.166 89.334 -17.499 134.001s7.5 89.334 20.5 134.001s30.167 88.167 51.5 130.5s69.333 98.166 144 167.499z" />
    <glyph glyph-name="parenright" unicode=")" horiz-adv-x="317" 
d="M74 -171l-65.002 119.001c41.333 30.667 72.833 60.167 94.5 88.5s37.834 61.5 48.501 99.5s14.667 77.167 12 117.5s-12.667 82.833 -30 127.5s-59.333 102 -126 172l86 113c74.667 -69.333 122.667 -125.166 144 -167.499s38.5 -85.833 51.5 -130.5
s19.833 -89.334 20.5 -134.001s-5.16602 -89.334 -17.499 -134.001s-28.833 -82.667 -49.5 -114s-41.5 -58.333 -62.5 -81s-56.5 -48 -106.5 -76z" />
    <glyph glyph-name="asterisk" unicode="*" horiz-adv-x="413" 
d="M355 525l36 -94l-89 -46l67 -83l-84 -78l-78 94l-59 -89l-98 64l52 93l-82 44l24 90l95 -18l17 100l88 4l22 -106z" />
    <glyph glyph-name="plus" unicode="+" horiz-adv-x="591" 
d="M377 485l5 -137l147 -5v-151l-147 -10l-5 -132h-164l-10 147l-142 -5v151l147 15l5 127h164z" />
    <glyph glyph-name="comma" unicode="," horiz-adv-x="223" 
d="M78 99l133.001 -7.99902c2 -44.667 -2.5 -80 -13.5 -106s-24.333 -47 -40 -63s-29.834 -27.833 -42.501 -35.5s-34 -17.167 -64 -28.5l-42 81c27.333 20.667 44.333 38.5 51 53.5s11.667 28.167 15 39.5s4.33301 33.666 3 66.999z" />
    <glyph glyph-name="hyphen" unicode="-" horiz-adv-x="400" 
d="M371 342v-155l-347 -5v170z" />
    <glyph glyph-name="hyphen" unicode="&#x2010;" horiz-adv-x="400" 
d="M371 342v-155l-347 -5v170z" />
    <glyph glyph-name="period" unicode="." horiz-adv-x="214" 
d="M109 164c14 0 27.832 -3.66699 41.499 -11s24.334 -17.833 32.001 -31.5s11.5 -27.834 11.5 -42.501s-3.83301 -28.667 -11.5 -42s-18.167 -23.5 -31.5 -30.5s-27.333 -10.5 -42 -10.5c-14 0 -27.833 3.5 -41.5 10.5s-24.167 17.167 -31.5 30.5s-11 27.333 -11 42
s3.66699 28.834 11 42.501s17.833 24.167 31.5 31.5s27.5 11 41.5 11z" />
    <glyph glyph-name="slash" unicode="/" horiz-adv-x="365" 
d="M53 -25l141 686l144 -15l-141 -686z" />
    <glyph glyph-name="zero" unicode="0" horiz-adv-x="508" 
d="M273 591c50 -1.33301 90.6689 -12.165 122.002 -32.498s57.333 -50 78 -89s32 -85.333 34 -139s-1.33301 -102.667 -10 -147s-22.167 -80.333 -40.5 -108s-44.5 -47.834 -78.5 -60.501s-70 -18.334 -108 -17.001s-71 5.5 -99 12.5s-54.5 23.667 -79.5 50
s-43.667 55.333 -56 87s-19.333 73 -21 124s2.66602 98.167 12.999 141.5s25.166 76 44.499 98s45 41.333 77 58s73.333 24 124 22zM264.002 405.001c-18 0.666992 -33.165 -2.16992 -45.498 -8.50293s-22 -13.666 -29 -21.999s-12.333 -20.5 -16 -36.5
s-5.16699 -36.333 -4.5 -61s3.16699 -43 7.5 -55s11.166 -23 20.499 -33s19.166 -16.167 29.499 -18.5s22.666 -3.83301 36.999 -4.5s27.833 1.33301 40.5 6s22.334 12.167 29.001 22.5s11.5 24 14.5 41s4.16699 38.167 3.5 63.5s-4.83398 45.333 -12.501 60
s-17.167 25.834 -28.5 33.501s-26.666 11.834 -45.999 12.501z" />
    <glyph glyph-name="one" unicode="1" horiz-adv-x="367" 
d="M7 408c45.333 18 77.5 37.502 96.5 58.502s42.5 62.5 70.5 124.5l161 -2l19 -586l-168 -5l-1 358c-13.333 -22.667 -25.833 -38.834 -37.5 -48.501s-35.167 -17.834 -70.5 -24.501l-70 125v0z" />
    <glyph glyph-name="two" unicode="2" horiz-adv-x="497" 
d="M3 495c67.333 57.333 127.833 88.332 181.5 92.999s95.667 2.5 126 -6.5s58 -25 83 -48s44.167 -56.667 57.5 -101s4 -87.5 -28 -129.5l-167 -154c88 -8 163 -7.33301 225 2l-2 -148c-145.333 -13.333 -289.333 -11.333 -432 6l4 158
c126.667 92.667 196 149.834 208 171.501s16.333 43 13 64s-20.5 35 -51.5 42s-83.167 -16.167 -156.5 -69.5l-61 120v0z" />
    <glyph glyph-name="three" unicode="3" horiz-adv-x="475" 
d="M19 479c51.333 66 115.669 102.164 193.002 108.497s132.5 -1.5 165.5 -23.5s57.167 -49.167 72.5 -81.5s17.833 -67.666 7.5 -105.999s-38.5 -67.166 -84.5 -86.499c40 -30.667 64.333 -57.334 73 -80.001s10.667 -48.834 6 -78.501s-19 -54.667 -43 -75
s-56.833 -36.333 -98.5 -48s-81.834 -13.667 -120.501 -6s-70.667 22.334 -96 44.001s-44.833 47.334 -58.5 77.001s-18.167 64.167 -13.5 103.5l151 -6c-2.66699 -34 2.33301 -56.667 15 -68s27.5 -17.833 44.5 -19.5s33.333 5.33301 49 21s18.5 33.5 8.5 53.5
s-45.333 31.333 -106 34l10 125c34.667 -5.33301 60.5 -3 77.5 7s20.167 24.667 9.5 44s-29.834 28.333 -57.501 27s-56.5 -21.666 -86.5 -60.999l-118 95v0z" />
    <glyph glyph-name="four" unicode="4" horiz-adv-x="598" 
d="M304 523c-4.66699 -48 -16 -91.333 -34 -130s-41.333 -71 -70 -97h125l9 287l160 -4l-10 -287l109 2l-7 -158l-105 4l-6 -143l-162 5l9 139l-308 15l2 150c44.667 42 77.667 82 99 120s36.333 86.667 45 146z" />
    <glyph glyph-name="five" unicode="5" horiz-adv-x="506" 
d="M468 584l-14.9971 -141.004l-244 3l-9 -57c36.667 12 66.167 17.167 88.5 15.5s44 -5.33398 65 -11.001s40.667 -16.667 59 -33s33 -33.666 44 -51.999s18.5 -43.666 22.5 -75.999s0.5 -65 -10.5 -98s-25.667 -58.333 -44 -76s-43.5 -32.5 -75.5 -44.5
s-65.167 -18 -99.5 -18s-62.833 3 -85.5 9s-43.834 15.667 -63.501 29s-36.834 27.833 -51.501 43.5s-24.334 33 -29.001 52s-2.66699 45.833 6 80.5l155 -12c-5.33301 -22 1.5 -37.667 20.5 -47s38.833 -11.5 59.5 -6.5s36.667 14 48 27s17 28 17 45s-4 31.333 -12 43
s-20.5 19.334 -37.5 23.001s-34 3.33398 -51 -0.999023s-33.5 -18.166 -49.5 -41.499l-143 52l26 301z" />
    <glyph glyph-name="six" unicode="6" horiz-adv-x="471" 
d="M437 561l-23.002 -138.001c-59.333 28 -104 39.167 -134 33.5s-53.5 -18 -70.5 -37s-28.167 -49.833 -33.5 -92.5c20 23.333 39 37 57 41s41.333 4.83301 70 2.5s54.834 -11.666 78.501 -27.999s42.167 -36.333 55.5 -60s20.333 -57 21 -100s-10.333 -79.5 -33 -109.5
s-52 -51.333 -88 -64s-78.5 -15.5 -127.5 -8.5s-90 24.333 -123 52s-53.167 60 -60.5 97s-9.66602 75.333 -6.99902 115s9 81.667 19 126s32.5 86 67.5 125s81.5 63.167 139.5 72.5s122 0.333008 192 -27zM181.998 180.999c2 -17.333 5.8291 -30.833 11.4961 -40.5
s16.5 -15.834 32.5 -18.501s33.5 -0.333984 52.5 6.99902s31.167 19 36.5 35s6.5 30.333 3.5 43s-10.667 23.834 -23 33.501s-26.166 13.667 -41.499 12s-27.166 -4.66699 -35.499 -9s-16.666 -11.666 -24.999 -21.999s-12.166 -23.833 -11.499 -40.5z" />
    <glyph glyph-name="seven" unicode="7" horiz-adv-x="543" 
d="M519 579l4.00098 -155c-63.333 -72 -104.333 -137.833 -123 -197.5s-30.334 -135.5 -35.001 -227.5l-173 -2c12 112 28.167 198.667 48.5 260s58.5 126.333 114.5 195l-172 3l4 -63h-152l-20 191z" />
    <glyph glyph-name="eight" unicode="8" horiz-adv-x="495" 
d="M245 450c-20 0 -37.167 -4.5 -51.5 -13.5s-21.5 -22.833 -21.5 -41.5c0 -12.667 7.16699 -23.5 21.5 -32.5s31.5 -13.5 51.5 -13.5c20.667 0 38.167 4.5 52.5 13.5s21.5 19.833 21.5 32.5c0 18.667 -7.16699 32.5 -21.5 41.5s-31.833 13.5 -52.5 13.5zM248 238
c-21.333 0 -39.333 -5 -54 -15s-22 -25.667 -22 -47c3.33301 -21.333 11.5 -36.333 24.5 -45s30.167 -13 51.5 -13s38.833 4.33301 52.5 13s22.167 23.667 25.5 45c0 21.333 -7.5 37 -22.5 47s-33.5 15 -55.5 15zM84 292l-1.00098 -0.000976562
c-44 30.667 -66 71.334 -66 122.001c0 48 21.667 88.833 65 122.5s96.333 50.5 159 50.5s115.834 -16.833 159.501 -50.5s65.5 -74.5 65.5 -122.5c0 -48.667 -20 -87.667 -60 -117l2 -2c43.333 -33.333 65 -77 65 -131c0 -48 -21.833 -88.667 -65.5 -122
s-97.167 -50 -160.5 -50c-61.333 0 -113.833 16.667 -157.5 50s-65.5 74 -65.5 122c0 52 20 94.667 60 128z" />
    <glyph glyph-name="nine" unicode="9" horiz-adv-x="475" 
d="M23 49l55.001 128c48.667 -28.667 89.834 -41 123.501 -37s57.5 13.667 71.5 29s24 44.333 30 87c-20.667 -23.333 -39.834 -37 -57.501 -41s-40.834 -4.83301 -69.501 -2.5s-55 11.666 -79 27.999s-42.667 36.333 -56 60s-20.333 57 -21 100s10.333 79.5 33 109.5
s52.167 51.333 88.5 64s79 15.5 128 8.5s89.833 -24.333 122.5 -52s52.667 -60 60 -97s9.83301 -75.333 7.5 -115s-8.66602 -81.667 -18.999 -126s-32.833 -85.166 -67.5 -122.499s-83.334 -60.833 -146.001 -70.5s-130.667 6.83301 -204 49.5zM295.001 402
c-1.33301 17.333 -4.83203 30.833 -10.499 40.5s-16.5 15.834 -32.5 18.501s-33.5 0.333984 -52.5 -6.99902s-31 -19 -36 -35s-6 -30.333 -3 -43s10.667 -23.834 23 -33.501s26.166 -13.667 41.499 -12s27 4.66699 35 9s16.333 11.666 25 21.999s12 23.833 10 40.5z" />
    <glyph glyph-name="colon" unicode=":" horiz-adv-x="236" 
d="M194 385c1.33301 -19.333 -2.49902 -35 -11.499 -47s-17.833 -20.5 -26.5 -25.5s-21.167 -8.33301 -37.5 -10s-31 3 -44 14s-21 23.667 -24 38s-1.83301 31 3.5 50s18 32.667 38 41s38.5 10.833 55.5 7.5s28.667 -10.5 35 -21.5s10.166 -26.5 11.499 -46.5zM189.001 150
c1.33301 -18.667 -2.33398 -33.667 -11.001 -45s-17 -19.5 -25 -24.5s-19.667 -8.33301 -35 -10s-29.166 3 -41.499 14s-20 23.333 -23 37s-2 29.5 3 47.5s17 31.167 36 39.5s36.667 10.833 53 7.5s27.333 -10.333 33 -21s9.16699 -25.667 10.5 -45z" />
    <glyph glyph-name="semicolon" unicode=";" horiz-adv-x="248" 
d="M218 385c2 -19.333 -1.66699 -35 -11 -47s-18.333 -20.5 -27 -25.5s-21 -8.33301 -37 -10s-30.667 3 -44 14s-21.5 23.667 -24.5 38s-1.83301 31 3.5 50s18 32.667 38 41s38.667 10.833 56 7.5s29 -10.5 35 -21.5s9.66699 -26.5 11 -46.5zM95 226l112.998 -8.00293
c2 -37.333 -2.33301 -68.166 -13 -92.499s-23 -43.833 -37 -58.5s-26.667 -25.5 -38 -32.5s-32 -15.5 -62 -25.5l-42 74c33.333 16 53.333 30.833 60 44.5s11.834 25.834 15.501 36.501s4.83398 31.334 3.50098 62.001z" />
    <glyph glyph-name="less" unicode="&#x3c;" horiz-adv-x="554" 
d="M495 365l-216 -72l216 -83l-42 -158l-396 185l6 138l395 128z" />
    <glyph glyph-name="equal" unicode="=" horiz-adv-x="564" 
d="M511 229v-133l-441 5v137zM511 438v-142l-441 5v128z" />
    <glyph glyph-name="greater" unicode="&#x3e;" horiz-adv-x="559" 
d="M104 503l394 -128l6 -138l-396 -185l-42 158l217 83l-217 72z" />
    <glyph glyph-name="question" unicode="?" horiz-adv-x="546" 
d="M14 420l154 -49.002c15.333 32.667 31.666 56.334 48.999 71.001s38.666 20.5 63.999 17.5s45.5 -16.5 60.5 -40.5s13.333 -54.833 -5 -92.5s-76.5 -74.167 -174.5 -109.5l14 -212l177 -3l-6 118c114 53.333 174.333 121.833 181 205.5s-9.16602 153.334 -47.499 209.001
s-87.166 88.167 -146.499 97.5s-119.5 1 -180.5 -25s-107.5 -88.333 -139.5 -187zM277 -37.002c20.667 0 40.6641 -4.83301 59.9971 -14.5s34.333 -23.667 45 -42s16 -37.5 16 -57.5c0 -19.333 -5.16699 -38 -15.5 -56s-25.166 -32.167 -44.499 -42.5
s-39.666 -15.5 -60.999 -15.5c-20.667 0 -40.667 5.16699 -60 15.5s-34.166 24.5 -44.499 42.5s-15.5 36.667 -15.5 56c0 20 5.33301 39.167 16 57.5s25.667 32.333 45 42s39 14.5 59 14.5z" />
    <glyph glyph-name="at" unicode="@" horiz-adv-x="698" 
d="M579 150c-42.667 -36 -76.6719 -54.666 -102.005 -55.999s-43.166 0 -53.499 4s-22.5 15.333 -36.5 34c-15.333 -3.33301 -27.333 -6.66602 -36 -9.99902c-20.667 -11.333 -43 -17 -67 -17c-16.667 0 -34 3.66699 -52 11c-23.333 9.33301 -40.166 24 -50.499 44
s-15.5 42 -15.5 66c0 18.667 2.5 37.5 7.5 56.5s11.833 36.833 20.5 53.5c22 42 48 76.333 78 103c35.333 24 63 36 83 36s45 -2.16699 75 -6.5s53.833 -25.5 71.5 -63.5s9.83398 -104.333 -23.499 -199c-4.66699 -14 -3.16699 -22.667 4.5 -26s21.334 6.5 41.001 29.5
s31.334 53.833 35.001 92.5s-1.5 72.167 -15.5 100.5s-34.333 52.666 -61 72.999s-68.334 29.166 -125.001 26.499s-110 -31.334 -160 -86.001s-74.167 -110 -72.5 -166s23.167 -101.833 64.5 -137.5s93.833 -55.667 157.5 -60s112.667 -1 147 10s67.5 29.5 99.5 55.5
l68 -90c-41.333 -36 -88.5 -59.5 -141.5 -70.5s-120.167 -12.333 -201.5 -4s-151 40.333 -209 96s-87 122.834 -87 201.501c0 52 14 103.333 42 154c30 54.667 70.333 98.667 121 132c56 38 118.333 57 187 57c84.667 0 156 -24 214 -72c57.333 -46 86 -105.333 86 -178
c0 -30 -4.66699 -58.333 -14 -85c-13.333 -44 -39.666 -80.333 -78.999 -109zM382.995 386.001c-10 6.66699 -23.0029 1.33594 -39.0029 -15.9971c-7.33301 -8 -14.166 -17 -20.499 -27s-12.5 -21 -18.5 -33c-3.33301 -7.33301 -6.16602 -14.333 -8.49902 -21l-6.5 -19
c-5.33301 -15.333 -8 -28.333 -8 -39c0 -7.33301 0.833008 -12.833 2.5 -16.5s4.16699 -5.83398 7.5 -6.50098c2 -0.666992 4.33301 -1.33398 7 -2.00098s4.66699 -1 6 -1c13.333 0 27.333 12 42 36c2.66699 4 5.83398 9.66699 9.50098 17l14.5 28c4 8 7.5 14.167 10.5 18.5
s5.83301 9.5 8.5 15.5c6 16 9 29.667 9 41c0 13.333 -4 21.666 -12 24.999h-4z" />
    <glyph glyph-name="A" unicode="A" horiz-adv-x="552" 
d="M21 -10c-4.66699 189.333 -1.83398 317.001 8.49902 383.001s27.5 121.5 51.5 166.5s59.833 74 107.5 87s91.5 11.167 131.5 -5.5s74.667 -45.334 104 -86.001s52.333 -105.667 69 -195s30.334 -204.333 41.001 -345h-165l-18 193l-178 2l-6 -191zM331 346.001
c-0.666992 47.333 -10.167 79.666 -28.5 96.999s-36.5 25.333 -54.5 24s-32 -11.166 -42 -29.499s-16.333 -49.833 -19 -94.5z" />
    <glyph glyph-name="B" unicode="B" horiz-adv-x="495" 
d="M36 606c64 18.667 120.499 29 169.499 31s95 -2.5 138 -13.5s77.333 -33.667 103 -68s36.167 -80.5 31.5 -138.5s-50.667 -97.667 -138 -119c32 -6 63.333 -24.667 94 -56s43.834 -71.333 39.501 -120s-24.333 -82.5 -60 -101.5s-84.167 -29.667 -145.5 -32
s-144.333 3.5 -249 17.5l17 600v0zM176.999 385c26.667 -1.33301 48.3311 -0.666992 64.998 2s31.334 10.5 44.001 23.5s16.167 27 10.5 42s-15.667 26.167 -30 33.5s-28.166 10.5 -41.499 9.5s-29.333 -7.16699 -48 -18.5v-92v0zM173.996 123.999
c19.333 -5.33301 36.6689 -8.33203 52.002 -8.99902s31.166 2.83301 47.499 10.5s23.166 20.5 20.499 38.5s-8.66699 33.167 -18 45.5s-23.333 19.166 -42 20.499s-37.667 0 -57 -4l-3 -102v0z" />
    <glyph glyph-name="C" unicode="C" horiz-adv-x="518" 
d="M414 423c-43.333 33.333 -85.499 48.501 -126.499 45.501s-70 -18.5 -87 -46.5s-25.667 -59.833 -26 -95.5s8.5 -68.834 26.5 -99.501s44.333 -50.667 79 -60s79.334 1 134.001 31l94 -126c-51.333 -42.667 -102.5 -67.334 -153.5 -74.001s-101.667 -0.166992 -152 19.5
s-93.333 55.667 -129 108s-54.334 114.833 -56.001 187.5s13 139.334 44 200.001s73.667 98.667 128 114s103.166 19.833 146.499 13.5s93 -32.833 149 -79.5z" />
    <glyph glyph-name="D" unicode="D" horiz-adv-x="506" 
d="M20 630c113.333 11.333 198.167 6.83398 254.5 -13.499s101 -48.5 134 -84.5s56.667 -85.667 71 -149s13.833 -124.333 -1.5 -183s-39 -102.334 -71 -131.001s-69 -50 -111 -64s-130.667 -17.333 -266 -10l-10 635v0zM179.001 152.001
c77.333 9.33301 123.333 34.834 138 76.501s17.167 82.667 7.5 123s-28.5 70.666 -56.5 90.999s-59 29.5 -93 27.5l4 -318v0z" />
    <glyph glyph-name="E" unicode="E" horiz-adv-x="493" 
d="M477 37c-68.667 -27.333 -132.333 -41.1689 -191 -41.502s-103.834 8 -135.501 25s-57.834 41.833 -78.501 74.5s-36.5 78.334 -47.5 137.001s-11.5 115.334 -1.5 170.001s31 106.834 63 156.501s86.5 77 163.5 82s153.833 -11.833 230.5 -50.5l-68 -147
c-58 36 -111.5 51.667 -160.5 47s-73.5 -38 -73.5 -100c72 4.66699 148 3.33398 228 -3.99902l15 -134c-85.333 -8.66699 -166.666 -8.66699 -243.999 0c3.33301 -52.667 22.833 -84.334 58.5 -95.001s99.834 -5.33398 192.501 15.999l49 -136v0z" />
    <glyph glyph-name="F" unicode="F" horiz-adv-x="418" 
d="M44 462c14 102.667 98.332 160.333 252.999 173l111 3l1 -151l-105 -8c-76.667 -10.667 -115 -49.667 -115 -117c60.667 11.333 127.667 12 201 2l5 -150c-141.333 7.33301 -211.666 2 -210.999 -16l8 -195l-157 -1c-15.333 212 -12.333 365.333 9 460z" />
    <glyph glyph-name="G" unicode="G" horiz-adv-x="550" 
d="M276 364l214.995 9.00293l26 -373l-148 -4l-6 56c-18.667 -22.667 -43.834 -38 -75.501 -46s-66.5 -6.66699 -104.5 4s-71.167 32.5 -99.5 65.5s-47.666 79.833 -57.999 140.5s-9.16602 124.667 3.50098 192s35.334 116.166 68.001 146.499s68 52.166 106 65.499
s75.167 18.5 111.5 15.5s70.333 -11.333 102 -25s58.5 -31.167 80.5 -52.5l-77 -134c-47.333 36.667 -86.666 54 -117.999 52s-59.666 -12.833 -84.999 -32.5s-41.166 -47.834 -47.499 -84.501s-3 -71.667 10 -105s29.667 -54.5 50 -63.5s41.333 -11 63 -6
s35.5 21.833 41.5 50.5l-60 -2z" />
    <glyph glyph-name="H" unicode="H" horiz-adv-x="535" 
d="M28 632l137.001 6c6 -74 9.66699 -150.333 11 -229l171 -3l4 226h160c10 -200 5.66699 -411 -13 -633l-149 -2l-1 238l-171 -7l-1 -221l-145 -7c-12 86.667 -18.333 182.167 -19 286.5s4.66602 219.5 15.999 345.5z" />
    <glyph glyph-name="I" unicode="I" horiz-adv-x="350" 
d="M308 641l11 -151.002h-72c6.66699 -144 6.66699 -259.333 0 -346l77 2l-7 -150l-301 4l2 139l83 2c-2 44.667 -4 100.334 -6 167.001s-1.66699 126.334 1 179.001h-75l3 154h284z" />
    <glyph glyph-name="J" unicode="J" 
d="M436 653l10 -137.998l-36 -12c14.667 -64.667 23.167 -141.334 25.5 -230.001s-3 -152 -16 -190s-35.167 -63.333 -66.5 -76s-70.5 -17.334 -117.5 -14.001s-87.333 16.333 -121 39s-69.167 80.334 -106.5 173.001l121 56c30.667 -57.333 57.334 -89.333 80.001 -96
s39.667 -3.33398 51 9.99902s17.666 44.833 18.999 94.5s-7 122.5 -25 218.5l-55 -9l-23 157z" />
    <glyph glyph-name="K" unicode="K" horiz-adv-x="497" 
d="M192 635c-11.333 -53.333 -17 -122.667 -17 -208c51.333 87.333 118.333 155.333 201 204l103 -127c-79.333 -45.333 -142.666 -109.333 -189.999 -192c67.333 -50 131.666 -119 192.999 -207l-108 -105c-63.333 82 -129.666 145.667 -198.999 191
c-6.66699 -45.333 -5 -108.666 5 -189.999l-141 -4c-12.667 150.667 -19.334 265.667 -20.001 345s4 178.666 14 297.999z" />
    <glyph glyph-name="L" unicode="L" horiz-adv-x="438" 
d="M188 633c-5.33301 -136 -6.33398 -292.333 -3.00098 -469c69.333 4 146 -0.666992 230 -14l7 -159l-374 7c-9.33301 32.667 -16.666 75.5 -21.999 128.5s-9 120.167 -11 201.5s5.66699 185.333 23 312z" />
    <glyph glyph-name="M" unicode="M" horiz-adv-x="800" 
d="M19 -1c0 80.667 3.49902 164.168 10.499 250.501s18 151.333 33 195s35.167 85 60.5 124s57 60.833 95 65.5s71.333 -5 100 -29s53.334 -71.667 74.001 -143c23.333 106 61.5 161.833 114.5 167.5s94 -8.5 123 -42.5s55.333 -88.667 79 -164s51.5 -216.333 83.5 -423
h-175c-19.333 169.333 -35.5 276.166 -48.5 320.499s-28 65.5 -45 63.5s-30.5 -23.667 -40.5 -65s-17.333 -148.333 -22 -321l-141 3l-17 222c-15.333 114 -32.833 169.833 -52.5 167.5s-35.167 -29.5 -46.5 -81.5s-19 -157.667 -23 -317l-162 7v0z" />
    <glyph glyph-name="N" unicode="N" horiz-adv-x="563" 
d="M19 -2c-5.33301 206 -5.83301 343.333 -1.5 412s13.833 117 28.5 145s35.834 49.667 63.501 65s57.5 18.833 89.5 10.5s60.667 -28 86 -59s57.333 -89.5 96 -175.5l-4 244l163 -7l5 -629l-160 -4c-46.667 134.667 -84.334 229.5 -113.001 284.5
s-53.167 85.167 -73.5 90.5s-30.833 -12.5 -31.5 -53.5s-3 -148.5 -7 -322.5l-141 -1v0z" />
    <glyph glyph-name="O" unicode="O" horiz-adv-x="650" 
d="M418 628c47.333 -10.667 89.6631 -33.3291 126.996 -67.9961s63 -88 77 -160s12.333 -137 -5 -195s-47.833 -104 -91.5 -138s-89.667 -54.833 -138 -62.5s-100.666 -5.5 -156.999 6.5s-101.666 38.333 -135.999 79s-56.333 86.167 -66 136.5s-9.66699 106.666 0 168.999
s36.334 116.166 80.001 161.499s94.334 71.166 152.001 77.499s110.167 4.16602 157.5 -6.50098zM369.997 476.005c-20.667 5.33301 -44.1699 6.50098 -70.5029 3.50098s-49.833 -15.833 -70.5 -38.5s-33.5 -49.834 -38.5 -81.501s-5.33301 -60.5 -1 -86.5
s14.333 -47.5 30 -64.5s35.834 -30 60.501 -39s49.167 -11.333 73.5 -7s46.333 15 66 32s33.334 40.333 41.001 70s8.33398 62.5 2.00098 98.5s-17.833 62.5 -34.5 79.5s-36 28.167 -58 33.5z" />
    <glyph glyph-name="P" unicode="P" horiz-adv-x="522" 
d="M26 612c19.333 3.33301 53.168 7.66602 101.501 12.999s107.166 8 176.499 8s118 -12.667 146 -38s46.5 -58.666 55.5 -99.999s8.83301 -81.5 -0.5 -120.5s-27 -72.333 -53 -100s-57.833 -45.667 -95.5 -54s-91.167 -10.833 -160.5 -7.5l-12 -220l-169 8zM193.002 353
c52 0 87.168 3.33496 105.501 10.002s30.666 23.667 36.999 51s-2 47.666 -25 60.999s-62.167 16.666 -117.5 9.99902v-132v0z" />
    <glyph glyph-name="Q" unicode="Q" horiz-adv-x="654" 
d="M481 42c-53.333 -28 -103.33 -42.3291 -149.997 -42.9961s-90.834 7.33301 -132.501 24s-79.667 42.167 -114 76.5s-56.333 75.833 -66 124.5s-8.83398 105 2.49902 169s39.5 118.667 84.5 164s96.5 71.166 154.5 77.499s110.5 4.16602 157.5 -6.50098
s89.333 -33.334 127 -68.001s63.5 -80.667 77.5 -138s17.167 -106.833 9.5 -148.5s-19.834 -76.834 -36.501 -105.501l65 -57l-95 -125l-84 56v0zM461.003 272.004c14 38 16.1631 71.668 6.49609 101.001s-23 52.5 -40 69.5s-36.167 28.167 -57.5 33.5
s-45.166 6.5 -71.499 3.5s-49.666 -15.833 -69.999 -38.5s-33 -49.834 -38 -81.501s-5.33301 -59.667 -1 -84s14.333 -45 30 -62s34.334 -30 56.001 -39s49.834 -8.83301 84.501 0.5c-34.667 34 -53.667 67 -57 99l92 79c24 -36.667 46 -63.667 66 -81z" />
    <glyph glyph-name="R" unicode="R" horiz-adv-x="538" 
d="M26 612c19.333 3.33301 53.168 7.66602 101.501 12.999s109.666 8 183.999 8s125.5 -12.667 153.5 -38s46.5 -58.666 55.5 -99.999s6.83301 -84.833 -6.5 -130.5s-40.666 -80.5 -81.999 -104.5l119 -219l-162 -53l-122 218c-18.667 -2 -42.334 0.333008 -71.001 7
l-12 -220l-169 8zM193.002 353c62 0 102 3.33496 120 10.002s30.333 23.667 37 51s-1.5 47.666 -24.5 60.999s-67.167 16.666 -132.5 9.99902v-132v0z" />
    <glyph glyph-name="S" unicode="S" horiz-adv-x="524" 
d="M450 398c-52.667 29.333 -92.498 50.167 -119.498 62.5s-53.167 19.833 -78.5 22.5s-40.166 -3.16602 -44.499 -17.499s2.5 -27.333 20.5 -39s42.667 -23 74 -34s62.833 -24.167 94.5 -39.5s59.167 -35 82.5 -59s33.5 -58.333 30.5 -103s-14 -82.334 -33 -113.001
s-46.833 -53 -83.5 -67s-78.334 -19.833 -125.001 -17.5s-83.667 9.83301 -111 22.5s-51.666 27 -72.999 43s-44.333 37.667 -69 65l107 116c41.333 -42 75.666 -64.833 102.999 -68.5s50.666 -5.33398 69.999 -5.00098s30.833 8.83301 34.5 25.5s-15 31.167 -56 43.5
s-81 27.833 -120 46.5s-70.333 45 -94 79s-33.834 72 -30.501 114s14.333 76.333 33 103s47.167 44.834 85.5 54.501s89.333 9.16699 153 -1.5s131.167 -35 202.5 -73z" />
    <glyph glyph-name="T" unicode="T" horiz-adv-x="536" 
d="M357 0l-171 -0.000976562c3.33301 144 3.33301 299.667 0 467c-44.667 11.333 -102.667 16.333 -174 15v140c170 11.333 340 11.333 510 0v-145c-62 2.66699 -117 -0.666016 -165 -9.99902c-3.33301 -167.333 -3.33301 -323 0 -467z" />
    <glyph glyph-name="U" unicode="U" horiz-adv-x="559" 
d="M38 646l166.002 -20.001c-20.667 -163.333 -29.834 -269.5 -27.501 -318.5s9 -84.167 20 -105.5s33.833 -33.833 68.5 -37.5s61.167 5.5 79.5 27.5s25.5 71.833 21.5 149.5s-9.66699 173.167 -17 286.5l163 20c20.667 -174.667 30.5 -294.167 29.5 -358.5
s-6.5 -111.666 -16.5 -141.999s-24.333 -56.5 -43 -78.5s-42.5 -38.667 -71.5 -50s-68.333 -17.333 -118 -18s-91.334 3 -125.001 11s-64 25.5 -91 52.5s-44.5 64 -52.5 111s-11.667 96 -11 147s3.5 103.333 8.5 157s10.5 109.167 16.5 166.5z" />
    <glyph glyph-name="V" unicode="V" horiz-adv-x="620" 
d="M11 616l175.999 18.999c34.667 -188.667 78.667 -331.334 132 -428.001c60.667 112.667 99 255.667 115 429l171 -21c-34 -201.333 -71.833 -348.666 -113.5 -441.999s-71.5 -147.666 -89.5 -162.999l-148 -11c-67.333 106 -117.666 198.667 -150.999 278
s-64 192.333 -92 339z" />
    <glyph glyph-name="W" unicode="W" horiz-adv-x="800" 
d="M392 159c-20.667 -64.667 -45.333 -108.827 -74 -132.494s-62 -33.5 -100 -29.5s-69.667 25.667 -95 65s-45.5 79.166 -60.5 119.499s-26 103.666 -33 189.999s-10.5 170.166 -10.5 251.499l167 7c4 -176 10.833 -290 20.5 -342s24.334 -79.167 44.001 -81.5
s37.167 53.5 52.5 167.5l17 177l131 4c4.66699 -143.333 13.667 -235.833 27 -277.5s28.5 -63.5 45.5 -65.5s31.167 19.167 42.5 63.5s26.666 164.166 45.999 359.499l180 -13c-26.667 -224.667 -53.167 -368.667 -79.5 -432s-54 -111.833 -83 -145.5
s-70 -47.834 -123 -42.501s-91.167 57.666 -114.5 156.999z" />
    <glyph glyph-name="X" unicode="X" horiz-adv-x="599" 
d="M22 562l142.001 71c63.333 -72.667 110 -140.667 140 -204c29.333 68 76.333 135.333 141 202l145 -80c-49.333 -81.333 -108.333 -156.666 -177 -225.999c61.333 -64.667 114.666 -140.334 159.999 -227.001l-137 -98c-56.667 61.333 -101.667 122 -135 182
c-31.333 -56.667 -80 -121.334 -146 -194.001l-143 92c46 80 102.333 160 169 240c-62 68.667 -115 149.334 -159 242.001z" />
    <glyph glyph-name="Y" unicode="Y" horiz-adv-x="604" 
d="M11 606l176 29.001c34.667 -100.667 77 -171.667 127 -213c54 57.333 89.333 128.666 106 213.999l175 -50c-43.333 -130 -107 -238.333 -191 -325v-262l-167 2l-12 256c-82 94.667 -153.333 211 -214 349z" />
    <glyph glyph-name="Z" unicode="Z" horiz-adv-x="479" 
d="M12 623c136.667 10 289 7.66797 457 -6.99902l-7 -141l-245 -328l250 7l-9 -152c-138.667 -18.667 -284 -20.334 -436 -5.00098l-8 156l241 313c-82 -6.66699 -160.333 -5.66699 -235 3z" />
    <glyph glyph-name="bracketleft" unicode="[" horiz-adv-x="288" 
d="M188 18l90 -3l-5 -160l-231 -3l-21 816l256 10l-5 -153l-95 -4z" />
    <glyph glyph-name="backslash" unicode="\" horiz-adv-x="356" 
d="M197 641l136 -720l-158 5l-141 705z" />
    <glyph glyph-name="bracketright" unicode="]" horiz-adv-x="301" 
d="M127 521l-95 4l-5 153l256 -10l-21 -816l-231 3l-5 160l90 3z" />
    <glyph glyph-name="asciicircum" unicode="^" horiz-adv-x="426" 
d="M293 398l-84 115l-71 -117l-134 55l146 253h112l156 -236z" />
    <glyph glyph-name="underscore" unicode="_" horiz-adv-x="340" 
d="M341 -35v-139h-341v139h341z" />
    <glyph glyph-name="grave" unicode="`" horiz-adv-x="237" 
d="M195 606l59 -263l-126 -34l-108 254z" />
    <glyph glyph-name="a" unicode="a" horiz-adv-x="465" 
d="M293 458l142.999 1l17 -452l-136 -11l-9 66c-9.33301 -24.667 -24 -42.5 -44 -53.5s-54.333 -11.167 -103 -0.5s-86.667 44.167 -114 100.5s-37.666 116 -30.999 179s39.167 110.833 97.5 143.5s117.833 33 178.5 1zM299.999 293c-35.333 34.667 -66.3311 45 -92.998 31
s-42.834 -35.5 -48.501 -64.5s-2.5 -54.667 9.5 -77s28.667 -34.833 50 -37.5s40.166 6.33301 56.499 27s24.833 61 25.5 121z" />
    <glyph glyph-name="b" unicode="b" 
d="M177 437c60 32 119.166 30.833 177.499 -3.5s90.833 -83 97.5 -146s-3.66602 -122.667 -30.999 -179s-65.333 -89.833 -114 -100.5s-83 -10.5 -103 0.5s-34.667 28.833 -44 53.5l-9 -66l-136 3l22 660l143 -1zM179.999 305
c-10.667 -48.667 -10.168 -83.167 1.49902 -103.5s28.334 -32.333 50.001 -36s40 2.33301 55 18s22.167 38 21.5 67s-13.5 50.5 -38.5 64.5s-54.833 10.667 -89.5 -10z" />
    <glyph glyph-name="c" unicode="c" horiz-adv-x="392" 
d="M329 281c-34.667 23.333 -62.5 34.8311 -83.5 34.498s-37.5 -7.16602 -49.5 -20.499s-18 -33.5 -18 -60.5s7 -48.333 21 -64s30.667 -24.334 50 -26.001s45.666 6.5 78.999 24.5l65 -124c-34 -27.333 -71.333 -43.333 -112 -48s-80.834 0 -120.501 14
s-73.667 39.667 -102 77s-43.166 82.833 -44.499 136.5s10.334 102.167 35.001 145.5s58.5 70.333 101.5 81s81.667 13.834 116 9.50098s73.833 -23.166 118.5 -56.499z" />
    <glyph glyph-name="d" unicode="d" horiz-adv-x="457" 
d="M284 658l142.999 1l22 -660l-136 -3l-9 66c-9.33301 -24.667 -24 -42.5 -44 -53.5s-54.333 -11.167 -103 -0.5s-86.667 44.167 -114 100.5s-37.666 116 -30.999 179s39.167 111.667 97.5 146s117.833 35.5 178.5 3.5zM283.999 305c-34.667 20.667 -64.667 24 -90 10
s-38.333 -35.5 -39 -64.5s6.66602 -51.333 21.999 -67s33.833 -21.667 55.5 -18s38.334 15.667 50.001 36s12.167 54.833 1.5 103.5z" />
    <glyph glyph-name="e" unicode="e" horiz-adv-x="468" 
d="M308 267c-6 37.333 -25.3311 58.332 -57.998 62.999s-55.834 0.833984 -69.501 -11.499s-21.834 -29.5 -24.501 -51.5h152zM164.002 172.999c20 -30.667 46.001 -47.5 78.001 -50.5s66.333 12.5 103 46.5l97 -84c-44 -46.667 -87.333 -75 -130 -85s-84 -9 -124 3
s-71.167 27 -93.5 45s-41.333 43.667 -57 77s-22.834 75.166 -21.501 125.499s17.833 94.333 49.5 132s70 61.5 115 71.5s86.5 9.83301 124.5 -0.5s67.833 -27.666 89.5 -51.999s37.167 -53 46.5 -86s13.333 -74.833 12 -125.5l-289 -17v0z" />
    <glyph glyph-name="f" unicode="f" horiz-adv-x="297" 
d="M220 313c0.666992 -92 5.33105 -195.668 13.998 -311.001l-144 -2l-15 308l-75 3l6 137l69 1c2.66699 24.667 7 52.834 13 84.501s20.333 62 43 91s63.834 46.333 123.501 52s110.167 -14.833 151.5 -61.5l-97 -111c-39.333 26 -64.166 29 -74.499 9s-16.5 -41 -18.5 -63
h68l4 -136z" />
    <glyph glyph-name="g" unicode="g" horiz-adv-x="458" 
d="M295 23c-60.667 -32 -120.165 -30.8359 -178.498 3.49707s-90.833 82.833 -97.5 145.5s3.66602 122.334 30.999 179.001s65.333 90.334 114 101.001s83 10.334 103 -0.999023s34.667 -29.333 44 -54l9 67l136 -2l-25 -565c-3.33301 -112 -68.833 -165.5 -196.5 -160.5
s-197.167 69.833 -208.5 194.5l134 20c5.33301 -50.667 29.666 -77.167 72.999 -79.5s64.333 20.167 63 67.5zM291.002 154.997c10.667 48.667 10.167 83 -1.5 103s-28.334 32 -50.001 36s-40.167 -2 -55.5 -18s-22.666 -38.5 -21.999 -67.5s13.667 -50.5 39 -64.5
s55.333 -10.333 90 11z" />
    <glyph glyph-name="h" unicode="h" horiz-adv-x="477" 
d="M173 649l-3 -297.998c34 49.333 68.5 76.166 103.5 80.499s67.833 -3.83398 98.5 -24.501s53.167 -52.667 67.5 -96s22.166 -145.666 23.499 -306.999l-135 -5c-9.33301 94 -18.333 156.167 -27 186.5s-23.667 46.166 -45 47.499s-38.666 -12.167 -51.999 -40.5
s-26.333 -91.833 -39 -190.5l-143 1l8 648z" />
    <glyph glyph-name="i" unicode="i" horiz-adv-x="191" 
d="M30 438c-14 -132.667 -12.333 -278.667 5 -438l125 -1c16.667 162.667 15 308.667 -5 438zM92 655c14.667 0 28.6689 -3.66699 42.002 -11s24 -17.833 32 -31.5s12 -27.834 12 -42.501s-3.83301 -28.834 -11.5 -42.501s-18.334 -24.167 -32.001 -31.5
s-27.834 -11 -42.501 -11s-28.834 3.66699 -42.501 11s-24.167 17.833 -31.5 31.5s-11 27.834 -11 42.501s3.83301 28.834 11.5 42.501s18.334 24.167 32.001 31.5s27.5 11 41.5 11z" />
    <glyph glyph-name="j" unicode="j" horiz-adv-x="207" 
d="M46 438l0.000976562 -487c-0.666992 -96 -50.334 -97.667 -149.001 -5l-87 -85c66.667 -89.333 143.167 -128.333 229.5 -117s134.833 80.333 145.5 207s8 288.667 -8 486zM113.001 655c14.667 0 28.8301 -3.66699 42.4971 -11s24.334 -17.833 32.001 -31.5
s11.5 -27.834 11.5 -42.501s-3.83301 -28.834 -11.5 -42.501s-18.167 -24.167 -31.5 -31.5s-27.666 -11 -42.999 -11c-14.667 0 -28.667 3.66699 -42 11s-23.833 17.833 -31.5 31.5s-11.5 27.834 -11.5 42.501s3.83301 28.834 11.5 42.501s18.334 24.167 32.001 31.5
s27.5 11 41.5 11z" />
    <glyph glyph-name="k" unicode="k" horiz-adv-x="402" 
d="M177 645c-10.667 -60 -16.332 -150.333 -16.999 -271c35.333 41.333 79.666 71.666 132.999 90.999l79 -132c-54.667 -24 -93.667 -50.667 -117 -80c60.667 -36.667 110.334 -90.667 149.001 -162l-88 -91c-47.333 59.333 -96 105 -146 137
c-6.66699 -45.333 -5 -90.666 5 -135.999l-136 -4c-12.667 150.667 -19.334 265.667 -20.001 345s4 182 14 308z" />
    <glyph glyph-name="l" unicode="l" horiz-adv-x="176" 
d="M156 646c6 -250.667 6 -465.333 0 -644l-132 -2c-2 136 -4 239.667 -6 311s-1.66699 182.333 1 333z" />
    <glyph glyph-name="m" unicode="m" horiz-adv-x="666" 
d="M18 445l115.997 1.99609l5 -123c6 84.667 40.5 126.5 103.5 125.5s99.5 -41.167 109.5 -120.5c25.333 72.667 58.5 111 99.5 115s74.833 -5.16699 101.5 -27.5s49.334 -59.166 68.001 -110.499s31.334 -153 38.001 -305l-142 -5
c-0.666992 108.667 -5.66699 178.5 -15 209.5s-24.833 45.833 -46.5 44.5s-37.167 -16.666 -46.5 -45.999s-12.333 -96.666 -9 -201.999l-111 -2l-4 159c-4.66699 60.667 -19.167 91.334 -43.5 92.001s-42.666 -14.333 -54.999 -45s-18.833 -100.667 -19.5 -210l-154 4z" />
    <glyph glyph-name="n" unicode="n" horiz-adv-x="429" 
d="M25 445l131.002 2v-123c15.333 84.667 60.166 124 134.499 118s114.166 -51 119.499 -135l7 -309l-131 -2l-4 143c2 83.333 -8.16699 122 -30.5 116s-41.5 -29.167 -57.5 -69.5s-27.333 -103.5 -34 -189.5l-140 4z" />
    <glyph glyph-name="o" unicode="o" horiz-adv-x="457" 
d="M293 441c32.667 -7.33301 62 -23.666 88 -48.999s43.833 -63.166 53.5 -113.499s8.5 -96.5 -3.5 -138.5s-33 -74.833 -63 -98.5s-61.833 -38 -95.5 -43s-70 -3.5 -109 4.5s-70.5 26.167 -94.5 54.5s-39.333 60.833 -46 97.5s-6.66699 76.667 0 120
s25.167 81.666 55.5 114.999s65.5 52.166 105.5 56.499s76.333 2.5 109 -5.5zM251 297c-10.667 2.66699 -22.8311 3.16992 -36.498 1.50293s-25.834 -8 -36.501 -19s-17.334 -25.167 -20.001 -42.5s-2.83398 -32.333 -0.500977 -45s7.5 -23.334 15.5 -32.001
s18.333 -15.167 31 -19.5s25.334 -5.33301 38.001 -3s24 7.66602 34 15.999s17.167 19.833 21.5 34.5s4.83301 31.667 1.5 51s-9.5 33.166 -18.5 41.499s-18.833 13.833 -29.5 16.5z" />
    <glyph glyph-name="p" unicode="p" 
d="M181 -204l-142.999 -1l-22 651l136 2l9 -61c9.33301 20.667 24 36.834 44 48.501s54.333 12 103 1s86.667 -43.167 114 -96.5s37.666 -111.333 30.999 -174s-39.167 -110.334 -97.5 -143.001s-117.5 -34.667 -177.5 -6zM181.001 149
c34.667 -21.333 64.501 -25 89.501 -11s37.833 35.667 38.5 65s-6.5 51.833 -21.5 67.5s-33.333 21.5 -55 17.5s-38.334 -16 -50.001 -36s-12.167 -54.333 -1.5 -103z" />
    <glyph glyph-name="q" unicode="q" horiz-adv-x="461" 
d="M295 22c-60.667 -32 -120.166 -31.668 -178.499 0.999023s-90.833 80.334 -97.5 143.001s3.66602 120.667 30.999 174s65.333 85.5 114 96.5s83 12.333 103 4s34.667 -24.5 44 -48.5l9 66l136 -2l-22 -661l-143 1zM291.001 148.999c10.667 48.667 10.167 83 -1.5 103
s-28.334 32 -50.001 36s-40.167 -1.83301 -55.5 -17.5s-22.666 -38.167 -21.999 -67.5s13.667 -51 39 -65s55.333 -10.333 90 11z" />
    <glyph glyph-name="r" unicode="r" horiz-adv-x="370" 
d="M24 450l131 1.99902v-123c36.667 116.667 112 147.334 226 92.001l-52 -157c-62 4 -104.167 -20.5 -126.5 -73.5s-36.833 -116.5 -43.5 -190.5h-135v450z" />
    <glyph glyph-name="s" unicode="s" horiz-adv-x="401" 
d="M342 270c-39.333 20.667 -69.166 35.3291 -89.499 43.9961s-40.166 14.667 -59.499 18s-29.833 2.5 -31.5 -2.5s3.66602 -10 15.999 -15l53.5 -21.5c23.333 -9.33301 47 -20.333 71 -33s44.667 -29.167 62 -49.5s25 -46.333 23 -78s-10.167 -58.167 -24.5 -79.5
s-35.333 -37 -63 -47s-59.167 -14.167 -94.5 -12.5s-63.333 5.33398 -84 11.001s-39 13.334 -55 23.001s-33.333 24.167 -52 43.5l66 117c40.667 -30 71.5 -47.167 92.5 -51.5s38 -7.16602 51 -8.49902s20.167 0.333984 21.5 5.00098s-12.167 12.5 -40.5 23.5
s-57.166 24.667 -86.499 41s-52.833 36.5 -70.5 60.5s-25.334 50.833 -23.001 80.5s10.666 54 24.999 73s36 32 65 39s67.5 7.5 115.5 1.5s99 -21 153 -45z" />
    <glyph glyph-name="t" unicode="t" horiz-adv-x="345" 
d="M77 453c2.66699 80 6.33301 145.667 11 197l130 -4v-193h87v-140h-87v-116c0 -61.333 33.667 -76.333 101 -45l21 -146c-162 -37.333 -248.333 17.667 -259 165l-3 142h-77v140h76z" />
    <glyph glyph-name="u" unicode="u" horiz-adv-x="442" 
d="M422 -3l-130.998 -1v59c-15.333 -42 -62.5 -60.167 -141.5 -54.5s-121.5 50.5 -127.5 134.5l-7 310l131 2l4 -144c-1.33301 -103.333 18.167 -155.166 58.5 -155.499s63.666 25.167 69.999 76.5s9.16602 125.666 8.49902 222.999l140 -5z" />
    <glyph glyph-name="v" unicode="v" horiz-adv-x="451" 
d="M11 437l142.999 13.001c24.667 -110.667 51.667 -198.667 81 -264c34 73.333 56.667 161.666 68 264.999l139 -15c-24 -142.667 -51.167 -247.167 -81.5 -313.5s-52.166 -104.833 -65.499 -115.5l-108 -8c-48.667 74.667 -85 140.167 -109 196.5
s-46.333 136.833 -67 241.5z" />
    <glyph glyph-name="w" unicode="w" horiz-adv-x="643" 
d="M316 111c-16.667 -46 -36.333 -77.1689 -59 -93.502s-49.167 -23.166 -79.5 -20.499s-55.5 15.5 -75.5 38.5s-36 51.167 -48 84.5s-20.833 80.666 -26.5 141.999s-8.5 120.333 -8.5 177l147 5c3.33301 -124.667 9 -202 17 -232s15.667 -45.833 23 -47.5
s17 31.166 29 98.499l13 126l134 3c4 -102 11.333 -167.667 22 -197s19.5 -44.666 26.5 -45.999s15 13.667 24 45s16.5 116 22.5 254l157 -10c-20.667 -158 -39 -261.167 -55 -309.5s-38.167 -82.666 -66.5 -102.999s-63.5 -28.666 -105.5 -24.999s-72.333 40.5 -91 110.5z
" />
    <glyph glyph-name="x" unicode="x" horiz-adv-x="446" 
d="M18 406l104.001 51.999c53.333 -59.333 87.666 -102.333 102.999 -129c14.667 26.667 44 67.667 88 123l121 -44c-29.333 -85.333 -64.333 -148.333 -105 -189c38 -44 72.333 -99 103 -165l-110 -71c-44.667 51.333 -77.667 90.333 -99 117
c-23.333 -27.333 -59 -65.666 -107 -114.999l-105 71c34 74.667 70.333 131 109 169c-38.667 36.667 -72.667 97 -102 181z" />
    <glyph glyph-name="y" unicode="y" horiz-adv-x="451" 
d="M11 437l143.001 12.999c24.667 -110.667 51.667 -198.667 81 -264c34 73.333 56.667 161.666 68 264.999l139 -15c-21.333 -130.667 -43.333 -226.667 -66 -288s-50.834 -124.666 -84.501 -189.999s-83.167 -143 -148.5 -233l-103 77
c59.333 76.667 102.333 152.334 129 227.001c-36.667 54.667 -67 110.167 -91 166.5s-46.333 136.833 -67 241.5z" />
    <glyph glyph-name="z" unicode="z" horiz-adv-x="407" 
d="M12 436c115.333 6.66699 244.002 4.99902 386.002 -5.00098l-6 -110l-197 -211l201 5l-8 -117c-116.667 -13.333 -239.334 -14.666 -368.001 -3.99902l-7 110l179 204c-52.667 -5.33301 -110.334 -5 -173.001 1z" />
    <glyph glyph-name=".null" horiz-adv-x="0" 
 />
    <glyph glyph-name="nonmarkingreturn" horiz-adv-x="314" 
 />
    <glyph glyph-name="glyph94" horiz-adv-x="358" 
 />
    </font>
</defs>
</svg>
